<svg xmlns="http://www.w3.org/2000/svg" width="370" height="370" viewBox="0 0 370 370" version="1.1"><path d="M 304.294 19.189 C 301.716 20.605, 296.776 25.480, 291.531 31.781 C 283.805 41.065, 263.960 61.121, 255 68.702 C 246.021 76.299, 230.765 87.051, 215.500 96.542 C 210.683 99.537, 194.411 107.562, 186.132 111.026 C 181.934 112.783, 177.600 114.596, 176.500 115.056 C 174.499 115.893, 161.358 120.172, 151 123.359 C 145.923 124.922, 118.571 129.343, 87.750 133.583 C 76.673 135.106, 75 135.578, 75 137.176 C 75 139.998, 78.472 164.321, 85.468 210.500 C 88.967 233.600, 92.136 254.863, 92.509 257.750 C 93.091 262.254, 93.494 262.999, 95.344 262.991 C 96.530 262.987, 110.977 260.977, 127.450 258.525 C 143.922 256.072, 157.527 254.194, 157.683 254.349 C 157.838 254.505, 155.213 259.103, 151.847 264.566 C 139.220 285.067, 136.457 289.957, 127.344 307.932 C 117.549 327.254, 116.757 330.089, 119.394 336.400 C 121.194 340.708, 125.138 343.623, 137.832 350.028 C 146.844 354.575, 148.728 355.178, 152.576 354.744 C 158.771 354.046, 162.856 350.499, 167.383 341.887 C 173.043 331.120, 178.863 320.211, 181.995 314.500 C 183.503 311.750, 186.419 306.350, 188.475 302.500 C 190.531 298.650, 197.202 286.563, 203.300 275.641 L 214.387 255.781 218.807 256.387 C 233.547 258.407, 264.830 267.376, 281.895 274.474 C 298.698 281.463, 322.803 294.787, 335.799 304.270 C 340.669 307.823, 347.053 309.857, 352 309.433 C 352.825 309.362, 354.806 309.236, 356.402 309.152 C 358.470 309.044, 360.871 307.434, 364.753 303.551 L 370.202 298.103 369.541 292.801 C 369.178 289.886, 368.203 283.450, 367.374 278.500 C 365.828 269.272, 365.183 264.490, 358.092 209.671 C 350.290 149.358, 343.708 106.513, 337.889 78.158 C 336.271 70.270, 333.831 56.153, 332.469 46.787 C 330.775 35.143, 329.344 28.605, 327.943 26.112 C 323.291 17.836, 312.502 14.678, 304.294 19.189 M 279.251 140.811 C 270.315 154.940, 255.646 178.875, 246.655 194 L 230.307 221.500 268.308 221.762 C 289.209 221.906, 306.479 221.854, 306.687 221.647 C 306.894 221.439, 306.162 211.646, 305.060 199.885 C 303.959 188.123, 302.591 172.875, 302.021 166 C 300.626 149.163, 297.037 118.904, 296.186 116.811 C 295.687 115.581, 291.080 122.109, 279.251 140.811 M 35.920 147.130 C 17.336 159.141, 6.457 178.750, 6.587 200 C 6.684 215.776, 10.495 227.988, 18.853 239.301 C 28.331 252.130, 46.250 263.211, 59.178 264.236 C 62.177 264.474, 62.477 264.257, 62.265 262 C 61.890 258.008, 46.023 147.737, 45.466 145.250 C 44.761 142.103, 43.231 142.405, 35.920 147.130" stroke="none" fill="#fffcfc" fill-rule="evenodd"/><path d="" stroke="none" fill="#fcfcfc" fill-rule="evenodd"/></svg>