<?xml version="1.0" encoding="iso-8859-1"?>
<!-- Uploaded to: SVG Repo, www.svgrepo.com, Generator: SVG Repo Mixer Tools -->
<svg version="1.1" id="Layer_1" xmlns="http://www.w3.org/2000/svg" xmlns:xlink="http://www.w3.org/1999/xlink" 
	 viewBox="0 0 512 512" xml:space="preserve">
<path style="fill:#00A8E1;" d="M503.322,389.831c0,15.909-13.017,28.926-28.926,28.926H37.604
	c-15.909,0-28.926-13.017-28.926-28.926V122.169c0-15.909,13.017-28.926,28.926-28.926h436.793
	c15.909,0,28.926,13.017,28.926,28.926V389.831z"/>
<circle style="fill:#FFFFFF;" cx="256.005" cy="222.069" r="91.405"/>
<path style="fill:#0071CE;" d="M219.572,183.892c0-11.585,8.209-16.325,18.244-10.534l66.116,38.173
	c10.034,5.793,10.034,15.274,0,21.066l-66.116,38.173c-10.035,5.792-18.244,1.052-18.244-10.534V183.892z"/>
<path style="fill:#333E48;" d="M8.678,349.72v40.112c0,15.909,13.017,28.926,28.926,28.926h436.793
	c15.909,0,28.926-13.017,28.926-28.926V349.72H8.678z"/>
<rect x="8.678" y="341.046" style="fill:#FF9E16;" width="494.642" height="17.355"/>
<rect x="92.667" y="323.876" style="fill:#FFFFFF;" width="17.355" height="51.68"/>
<path style="fill:#1E252B;" d="M256,121.981c-55.186,0-100.083,44.897-100.083,100.083S200.814,322.147,256,322.147
	s100.083-44.897,100.083-100.083S311.186,121.981,256,121.981z M256,304.792c-45.616,0-82.728-37.112-82.728-82.728
	s37.112-82.728,82.728-82.728s82.728,37.112,82.728,82.728S301.616,304.792,256,304.792z M474.397,84.565H37.604
	C16.87,84.565,0,101.433,0,122.169v267.663c0,20.735,16.87,37.604,37.604,37.604h436.793c20.734,0,37.603-16.868,37.603-37.604
	V122.169C512,101.433,495.131,84.565,474.397,84.565z M494.645,389.831c0,11.164-9.084,20.248-20.248,20.248H37.604
	c-11.164,0-20.248-9.084-20.248-20.248V122.169c0-11.164,9.084-20.248,20.248-20.248h436.793c11.164,0,20.248,9.084,20.248,20.248
	V389.831z"/>
</svg>