<?xml version="1.0" encoding="iso-8859-1"?>
<svg height="800px" width="800px" version="1.1" id="Capa_1" xmlns="http://www.w3.org/2000/svg" xmlns:xlink="http://www.w3.org/1999/xlink" 
	 viewBox="0 0 56 56" xml:space="preserve">
<style id="text">
  text {
    font-family: Helvetica, Arial;
	font-weight:500;
	fill:white;
	font-size: 13px;
  }
</style>	
<g>
	<path style="fill:#E9E9E0;" d="M36.985,0H7.963C7.155,0,6.5,0.655,6.5,1.926V55c0,0.345,0.655,1,1.463,1h40.074
		c0.808,0,1.463-0.655,1.463-1V12.978c0-0.696-0.093-0.92-0.257-1.085L37.607,0.257C37.442,0.093,37.218,0,36.985,0z"/>
	<polygon style="fill:#D9D7CA;" points="37.5,0.151 37.5,12 49.349,12 	"/>
	<circle style="fill:#F3D55B;" cx="18.931" cy="14.431" r="4.569"/>
	<polygon style="fill:#0066BB;" points="6.5,39 17.5,39 49.5,39 49.5,28 39.5,18.5 29,30 23.517,24.517 	"/>
	<path style="fill:#0066BB;" d="M48.037,56H7.963C7.155,56,6.5,55.345,6.5,54.537V39h43v15.537C49.5,55.345,48.845,56,48.037,56z"/>
	<text x="49%" y="52" text-anchor="middle">PNG</text>
</g>
</svg>