<?xml version="1.0" encoding="utf-8"?>
<svg height="800px" width="800px" version="1.1" id="Capa_1" viewBox="0 0 56 56" xmlns="http://www.w3.org/2000/svg">
  <style id="text">
  text {
    font-family: Helvetica, Arial;
	font-weight:500;
	fill:white;
	font-size: 13px;
  }
</style>
  <g>
    <path style="fill:#E9E9E0;" d="M36.985,0H7.963C7.155,0,6.5,0.655,6.5,1.926V55c0,0.345,0.655,1,1.463,1h40.074 c0.808,0,1.463-0.655,1.463-1V12.978c0-0.696-0.093-0.92-0.257-1.085L37.607,0.257C37.442,0.093,37.218,0,36.985,0z"/>
    <polygon style="fill:#D9D7CA;" points="37.5,0.151 37.5,12 49.349,12 &#9;"/>
    <path d="M 28.664 13.505 C 28.664 13.505 26.03 11.907 23.396 11.907 C 20.763 11.907 16.811 13.505 16.811 13.505 L 16.811 32.676 C 16.811 32.676 20.763 31.078 23.396 31.078 C 26.03 31.078 28.664 32.676 28.664 32.676 C 30.42 31.611 32.177 31.078 33.933 31.078 C 35.689 31.078 37.884 31.611 40.518 32.676 L 40.518 13.505 C 37.884 12.44 35.689 11.907 33.933 11.907 C 32.177 11.907 30.42 12.44 28.664 13.505 Z" style=""/>
    <path style="fill:#3309B0;" d="M48.037,56H7.963C7.155,56,6.5,55.345,6.5,54.537V39h43v15.537C49.5,55.345,48.845,56,48.037,56z"/>
    <text x="49%" y="52" text-anchor="middle" style="white-space: pre;">CBR</text>
  </g>
</svg>